<svg xmlns="http://www.w3.org/2000/svg" xmlns:xlink="http://www.w3.org/1999/xlink" width="1080" zoomAndPan="magnify" viewBox="0 0 810 1439.999935" height="1920" preserveAspectRatio="xMidYMid meet" version="1.0"><defs><filter x="0%" y="0%" width="100%" height="100%" id="ba339441ae"><feColorMatrix values="0 0 0 0 1 0 0 0 0 1 0 0 0 0 1 0 0 0 1 0" color-interpolation-filters="sRGB"/></filter><mask id="c44a4548d8"><g filter="url(#ba339441ae)"><rect x="-81" width="972" fill="#000000" y="-143.999994" height="1727.999922" fill-opacity="0.15"/></g></mask><clipPath id="125588f3bd"><path d="M 0 5.085938 L 810 5.085938 L 810 6.652344 L 0 6.652344 Z M 79.210938 6.652344 L 80.777344 6.652344 L 80.777344 102.917969 L 79.210938 102.917969 Z M 177.042969 6.652344 L 178.605469 6.652344 L 178.605469 102.917969 L 177.042969 102.917969 Z M 274.871094 6.652344 L 276.4375 6.652344 L 276.4375 102.917969 L 274.871094 102.917969 Z M 372.703125 6.652344 L 374.265625 6.652344 L 374.265625 102.917969 L 372.703125 102.917969 Z M 470.53125 6.652344 L 472.097656 6.652344 L 472.097656 102.917969 L 470.53125 102.917969 Z M 568.363281 6.652344 L 569.925781 6.652344 L 569.925781 102.917969 L 568.363281 102.917969 Z M 666.191406 6.652344 L 667.757812 6.652344 L 667.757812 102.917969 L 666.191406 102.917969 Z M 764.023438 6.652344 L 765.585938 6.652344 L 765.585938 102.917969 L 764.023438 102.917969 Z M 0 102.917969 L 810 102.917969 L 810 104.484375 L 0 104.484375 Z M 79.210938 104.484375 L 80.777344 104.484375 L 80.777344 200.746094 L 79.210938 200.746094 Z M 177.042969 104.484375 L 178.605469 104.484375 L 178.605469 200.746094 L 177.042969 200.746094 Z M 274.871094 104.484375 L 276.4375 104.484375 L 276.4375 200.746094 L 274.871094 200.746094 Z M 372.703125 104.484375 L 374.265625 104.484375 L 374.265625 200.746094 L 372.703125 200.746094 Z M 470.53125 104.484375 L 472.097656 104.484375 L 472.097656 200.746094 L 470.53125 200.746094 Z M 568.363281 104.484375 L 569.925781 104.484375 L 569.925781 200.746094 L 568.363281 200.746094 Z M 666.191406 104.484375 L 667.757812 104.484375 L 667.757812 200.746094 L 666.191406 200.746094 Z M 764.023438 104.484375 L 765.585938 104.484375 L 765.585938 200.746094 L 764.023438 200.746094 Z M 0 200.746094 L 810 200.746094 L 810 202.3125 L 0 202.3125 Z M 79.210938 202.3125 L 80.777344 202.3125 L 80.777344 298.578125 L 79.210938 298.578125 Z M 177.042969 202.3125 L 178.605469 202.3125 L 178.605469 298.578125 L 177.042969 298.578125 Z M 274.871094 202.3125 L 276.4375 202.3125 L 276.4375 298.578125 L 274.871094 298.578125 Z M 372.703125 202.3125 L 374.265625 202.3125 L 374.265625 298.578125 L 372.703125 298.578125 Z M 470.53125 202.3125 L 472.097656 202.3125 L 472.097656 298.578125 L 470.53125 298.578125 Z M 568.363281 202.3125 L 569.925781 202.3125 L 569.925781 298.578125 L 568.363281 298.578125 Z M 666.191406 202.3125 L 667.757812 202.3125 L 667.757812 298.578125 L 666.191406 298.578125 Z M 764.023438 202.3125 L 765.585938 202.3125 L 765.585938 298.578125 L 764.023438 298.578125 Z M 0 298.578125 L 810 298.578125 L 810 300.144531 L 0 300.144531 Z M 79.210938 300.144531 L 80.777344 300.144531 L 80.777344 396.40625 L 79.210938 396.40625 Z M 177.042969 300.144531 L 178.605469 300.144531 L 178.605469 396.40625 L 177.042969 396.40625 Z M 274.871094 300.144531 L 276.4375 300.144531 L 276.4375 396.40625 L 274.871094 396.40625 Z M 372.703125 300.144531 L 374.265625 300.144531 L 374.265625 396.40625 L 372.703125 396.40625 Z M 470.53125 300.144531 L 472.097656 300.144531 L 472.097656 396.40625 L 470.53125 396.40625 Z M 568.363281 300.144531 L 569.925781 300.144531 L 569.925781 396.40625 L 568.363281 396.40625 Z M 666.191406 300.144531 L 667.757812 300.144531 L 667.757812 396.40625 L 666.191406 396.40625 Z M 764.023438 300.144531 L 765.585938 300.144531 L 765.585938 396.40625 L 764.023438 396.40625 Z M 0 396.40625 L 810 396.40625 L 810 397.972656 L 0 397.972656 Z M 79.210938 397.972656 L 80.777344 397.972656 L 80.777344 494.238281 L 79.210938 494.238281 Z M 177.042969 397.972656 L 178.605469 397.972656 L 178.605469 494.238281 L 177.042969 494.238281 Z M 274.871094 397.972656 L 276.4375 397.972656 L 276.4375 494.238281 L 274.871094 494.238281 Z M 372.703125 397.972656 L 374.265625 397.972656 L 374.265625 494.238281 L 372.703125 494.238281 Z M 470.53125 397.972656 L 472.097656 397.972656 L 472.097656 494.238281 L 470.53125 494.238281 Z M 568.363281 397.972656 L 569.925781 397.972656 L 569.925781 494.238281 L 568.363281 494.238281 Z M 666.191406 397.972656 L 667.757812 397.972656 L 667.757812 494.238281 L 666.191406 494.238281 Z M 764.023438 397.972656 L 765.585938 397.972656 L 765.585938 494.238281 L 764.023438 494.238281 Z M 0 494.238281 L 810 494.238281 L 810 495.804688 L 0 495.804688 Z M 79.210938 495.804688 L 80.777344 495.804688 L 80.777344 592.066406 L 79.210938 592.066406 Z M 177.042969 495.804688 L 178.605469 495.804688 L 178.605469 592.066406 L 177.042969 592.066406 Z M 274.871094 495.804688 L 276.4375 495.804688 L 276.4375 592.066406 L 274.871094 592.066406 Z M 372.703125 495.804688 L 374.265625 495.804688 L 374.265625 592.066406 L 372.703125 592.066406 Z M 470.53125 495.804688 L 472.097656 495.804688 L 472.097656 592.066406 L 470.53125 592.066406 Z M 568.363281 495.804688 L 569.925781 495.804688 L 569.925781 592.066406 L 568.363281 592.066406 Z M 666.191406 495.804688 L 667.757812 495.804688 L 667.757812 592.066406 L 666.191406 592.066406 Z M 764.023438 495.804688 L 765.585938 495.804688 L 765.585938 592.066406 L 764.023438 592.066406 Z M 0 592.066406 L 810 592.066406 L 810 593.632812 L 0 593.632812 Z M 79.210938 593.632812 L 80.777344 593.632812 L 80.777344 689.898438 L 79.210938 689.898438 Z M 177.042969 593.632812 L 178.605469 593.632812 L 178.605469 689.898438 L 177.042969 689.898438 Z M 274.871094 593.632812 L 276.4375 593.632812 L 276.4375 689.898438 L 274.871094 689.898438 Z M 372.703125 593.632812 L 374.265625 593.632812 L 374.265625 689.898438 L 372.703125 689.898438 Z M 470.53125 593.632812 L 472.097656 593.632812 L 472.097656 689.898438 L 470.53125 689.898438 Z M 568.363281 593.632812 L 569.925781 593.632812 L 569.925781 689.898438 L 568.363281 689.898438 Z M 666.191406 593.632812 L 667.757812 593.632812 L 667.757812 689.898438 L 666.191406 689.898438 Z M 764.023438 593.632812 L 765.585938 593.632812 L 765.585938 689.898438 L 764.023438 689.898438 Z M 0 689.898438 L 810 689.898438 L 810 691.460938 L 0 691.460938 Z M 79.210938 691.460938 L 80.777344 691.460938 L 80.777344 787.726562 L 79.210938 787.726562 Z M 177.042969 691.460938 L 178.605469 691.460938 L 178.605469 787.726562 L 177.042969 787.726562 Z M 274.871094 691.460938 L 276.4375 691.460938 L 276.4375 787.726562 L 274.871094 787.726562 Z M 372.703125 691.460938 L 374.265625 691.460938 L 374.265625 787.726562 L 372.703125 787.726562 Z M 470.53125 691.460938 L 472.097656 691.460938 L 472.097656 787.726562 L 470.53125 787.726562 Z M 568.363281 691.460938 L 569.925781 691.460938 L 569.925781 787.726562 L 568.363281 787.726562 Z M 666.191406 691.460938 L 667.757812 691.460938 L 667.757812 787.726562 L 666.191406 787.726562 Z M 764.023438 691.460938 L 765.585938 691.460938 L 765.585938 787.726562 L 764.023438 787.726562 Z M 0 787.726562 L 810 787.726562 L 810 789.292969 L 0 789.292969 Z M 79.210938 789.292969 L 80.777344 789.292969 L 80.777344 885.558594 L 79.210938 885.558594 Z M 177.042969 789.292969 L 178.605469 789.292969 L 178.605469 885.558594 L 177.042969 885.558594 Z M 274.871094 789.292969 L 276.4375 789.292969 L 276.4375 885.558594 L 274.871094 885.558594 Z M 372.703125 789.292969 L 374.265625 789.292969 L 374.265625 885.558594 L 372.703125 885.558594 Z M 470.53125 789.292969 L 472.097656 789.292969 L 472.097656 885.558594 L 470.53125 885.558594 Z M 568.363281 789.292969 L 569.925781 789.292969 L 569.925781 885.558594 L 568.363281 885.558594 Z M 666.191406 789.292969 L 667.757812 789.292969 L 667.757812 885.558594 L 666.191406 885.558594 Z M 764.023438 789.292969 L 765.585938 789.292969 L 765.585938 885.558594 L 764.023438 885.558594 Z M 0 885.558594 L 810 885.558594 L 810 887.121094 L 0 887.121094 Z M 79.210938 887.121094 L 80.777344 887.121094 L 80.777344 983.386719 L 79.210938 983.386719 Z M 177.042969 887.121094 L 178.605469 887.121094 L 178.605469 983.386719 L 177.042969 983.386719 Z M 274.871094 887.121094 L 276.4375 887.121094 L 276.4375 983.386719 L 274.871094 983.386719 Z M 372.703125 887.121094 L 374.265625 887.121094 L 374.265625 983.386719 L 372.703125 983.386719 Z M 470.53125 887.121094 L 472.097656 887.121094 L 472.097656 983.386719 L 470.53125 983.386719 Z M 568.363281 887.121094 L 569.925781 887.121094 L 569.925781 983.386719 L 568.363281 983.386719 Z M 666.191406 887.121094 L 667.757812 887.121094 L 667.757812 983.386719 L 666.191406 983.386719 Z M 764.023438 887.121094 L 765.585938 887.121094 L 765.585938 983.386719 L 764.023438 983.386719 Z M 0 983.386719 L 810 983.386719 L 810 984.953125 L 0 984.953125 Z M 0 983.386719 " clip-rule="nonzero"/></clipPath><clipPath id="fc9f147971"><rect x="0" width="810" y="0" height="991"/></clipPath></defs><rect x="-81" width="972" fill="#ffffff" y="-143.999994" height="1727.999922" fill-opacity="1"/><rect x="-81" width="972" fill="#051339" y="-143.999994" height="1727.999922" fill-opacity="1"/><g mask="url(#c44a4548d8)"><g transform="matrix(1, 0, 0, 1, 0, -0.000000000000101068)"><g clip-path="url(#fc9f147971)"><g clip-path="url(#125588f3bd)"><path fill="#ffffff" d="M -17.835938 0 L 960.464844 0 L 960.464844 990.039062 L -17.835938 990.039062 Z M -17.835938 0 " fill-opacity="1" fill-rule="nonzero"/></g></g></g></g></svg>