<?xml version="1.0" encoding="UTF-8"?><svg id="Capa_2" xmlns="http://www.w3.org/2000/svg" viewBox="0 0 560.84 188.36"><defs><style>.cls-1,.cls-2{fill:#fff;}.cls-2{opacity:.2;}</style></defs><g id="Capa_1-2"><path class="cls-2" d="m146.36,188.36c-19.14,0-37.18-.86-53.78-2.6C36.89,179.93,4.14,164.85.37,143.3s21.88-46.88,72.26-71.31c50.2-24.35,119-44.98,193.71-58.08C341.06.8,412.77-3.21,468.26,2.6c55.69,5.83,88.44,20.91,92.22,42.46s-21.88,46.88-72.26,71.31c-50.2,24.35-119,44.98-193.71,58.08-52.37,9.19-103.27,13.91-148.14,13.91ZM414.47,1c-44.81,0-95.64,4.71-147.96,13.89-74.63,13.09-143.33,33.69-193.45,58C23.12,97.11-2.35,122.06,1.35,143.13c3.7,21.07,36.13,35.86,91.34,41.64,55.4,5.8,127.01,1.79,201.64-11.3,74.63-13.09,143.33-33.69,193.45-58,49.94-24.22,75.41-49.17,71.71-70.24h0c-3.7-21.07-36.13-35.86-91.34-41.64-16.56-1.73-34.58-2.59-53.68-2.59Z"/><path class="cls-1" d="m64.33,144.5v-8.03c0-5.24,1.21-8.29,5.71-8.29,4,0,5.55,2.25,5.55,6.99v.89h-2.79v-.74c0-3.11-.32-4.53-2.71-4.53-2.63,0-2.79,2.22-2.79,5.18v8.89c0,3.46.53,5.15,2.87,5.15s2.9-1.87,2.9-5.48v-1.66h-2.71v-2.37h5.4v11.88h-1.87l-.29-2.75c-.58,1.78-1.68,3.05-3.79,3.05-4,0-5.47-2.99-5.47-8.17Z"/><path class="cls-1" d="m94.07,128.39h2.97v21.59h5.45v2.4h-8.42v-23.99Z"/><path class="cls-1" d="m119.61,144.29v-15.9h2.84v16.05c0,3.11.34,5.57,2.84,5.57s2.84-2.46,2.84-5.57v-16.05h2.82v15.9c0,5.04-1.03,8.35-5.66,8.35s-5.69-3.32-5.69-8.35Z"/><path class="cls-1" d="m151.7,130.87h-3.61v-2.49h10.08v2.49h-3.5v21.5h-2.97v-21.5Z"/><path class="cls-1" d="m175.5,128.39h8.27v2.49h-5.29v7.94h4.29v2.37h-4.29v8.8h5.34v2.4h-8.32v-23.99Z"/><path class="cls-1" d="m201.48,128.39h2.03l6.05,15.93v-15.93h2.47v23.99h-1.9l-6.13-16.38v16.38h-2.53v-23.99Z"/><path class="cls-1" d="m251.95,128.39h8.24v2.4h-5.26v8h4.08v2.37h-4.08v11.22h-2.97v-23.99Z"/><path class="cls-1" d="m277.51,128.39h4.29c4.26,0,6.26,1.81,6.26,6.37,0,2.81-.74,4.89-2.63,5.6l3.03,12.02h-2.87l-2.79-11.25h-2.32v11.25h-2.97v-23.99Zm4.11,10.34c2.5,0,3.58-.89,3.58-3.97,0-2.81-.68-3.97-3.4-3.97h-1.32v7.94h1.13Z"/><path class="cls-1" d="m306.44,128.39h8.27v2.49h-5.29v7.94h4.29v2.37h-4.29v8.8h5.34v2.4h-8.32v-23.99Z"/><path class="cls-1" d="m332.43,128.39h8.27v2.49h-5.29v7.94h4.29v2.37h-4.29v8.8h5.34v2.4h-8.32v-23.99Z"/><path class="cls-1" d="m379.31,144.68v-8.47c0-4.86,1.21-8.03,5.74-8.03,3.97,0,5.37,2.58,5.37,6.9v1.9h-2.82v-1.69c0-2.67-.05-4.5-2.53-4.5s-2.76,1.95-2.76,4.92v9.51c0,3.61.71,4.8,2.76,4.8,2.4,0,2.53-1.93,2.53-4.77v-1.78h2.82v1.78c0,4.41-1.18,7.4-5.37,7.4-4.53,0-5.74-3.5-5.74-7.97Z"/><path class="cls-1" d="m408.14,144.85v-9.09c0-4.74,1.53-7.58,5.84-7.58s5.82,2.87,5.82,7.58v9.12c0,4.71-1.53,7.76-5.82,7.76s-5.84-3.02-5.84-7.79Zm8.66.74v-10.51c0-2.67-.45-4.29-2.82-4.29s-2.84,1.63-2.84,4.29v10.51c0,2.67.45,4.41,2.84,4.41s2.82-1.75,2.82-4.41Z"/><path class="cls-1" d="m437.99,128.39h4.63c4.74,0,6.32,2.46,6.32,7.32v8.83c0,5.09-1.61,7.85-6.08,7.85h-4.87v-23.99Zm4.66,21.59c3.24,0,3.29-2.19,3.29-6.07v-7.79c0-3.7-.32-5.24-3.37-5.24h-1.61v19.1h1.68Z"/><path class="cls-1" d="m467.14,128.39h8.27v2.49h-5.29v7.94h4.29v2.37h-4.29v8.8h5.34v2.4h-8.32v-23.99Z"/><path class="cls-1" d="m62.62,116.19h63.29l-1.89-36.26h-1.89c-.44,21.36-8.12,33.36-20.91,33.36h-8.78v-43.37c0-17.35,2.22-27.69,4.67-30.25v-1.33h-34.48v1.33c2.45,2.56,4.67,12.9,4.67,30.25v14.68c0,17.35-2.22,27.69-4.67,30.25v1.33Z"/><path class="cls-1" d="m144.92,117.74c9.34,0,16.68-5.67,19.02-13.68h1.33c1.23,7.79,6.67,13.68,14.57,13.68s12.34-6.9,13.23-16.02h-1.11c-.56,2-1.56,3.45-3.45,3.45-2.89,0-4.45-3-5.34-7.89l-3.67-21.02c-2.66-14.57-11.68-22.8-27.91-22.8-11.79,0-21.02,5.56-21.02,13.46,0,5.67,4.78,10.01,10.56,10.01s9.46-4.56,9.46-9.12c0-1.23-.34-2.56-.89-3.45l-1.22.11c.33,2.22-1.67,3.67-4.45,3.67s-5.23-2.11-5.23-5.45c0-3.89,2.89-6.56,7.67-6.56,5.89,0,9.9,4.11,11.12,11.23l3.11,17.91h-1.33c-2.45-3.56-8.57-6.56-14.46-6.56-12.24,0-20.35,7.56-20.35,19.46s8.12,19.57,20.35,19.57Zm8.89-8.57c-5.45,0-9.01-4.89-9.01-12.23s3.56-12.13,9.01-12.13,9.12,5.01,9.12,12.13-3.78,12.23-9.12,12.23Z"/><path class="cls-1" d="m210.53,117.74c8.68,0,12.9-6.56,14.02-15.9l-1.11-.22c-.44,2-1.78,3.56-3.67,3.56-3,0-4.67-3-4.67-8V32.67h-1.11c-5.78,3.67-15.68,5.56-23.58,5.67v1.11c2,1.78,4.01,6.01,4.01,18.68v42.82c0,10.12,6.11,16.79,16.12,16.79Z"/><path class="cls-1" d="m242.78,117.74c9.34,0,16.68-5.67,19.02-13.68h1.33c1.23,7.79,6.67,13.68,14.57,13.68s12.34-6.9,13.23-16.02h-1.11c-.56,2-1.56,3.45-3.45,3.45-2.89,0-4.45-3-5.34-7.89l-3.67-21.02c-2.66-14.57-11.68-22.8-27.91-22.8-11.79,0-21.02,5.56-21.02,13.46,0,5.67,4.78,10.01,10.56,10.01s9.46-4.56,9.46-9.12c0-1.23-.34-2.56-.89-3.45l-1.22.11c.33,2.22-1.67,3.67-4.45,3.67s-5.23-2.11-5.23-5.45c0-3.89,2.89-6.56,7.67-6.56,5.89,0,9.9,4.11,11.12,11.23l3.11,17.91h-1.33c-2.45-3.56-8.57-6.56-14.46-6.56-12.24,0-20.35,7.56-20.35,19.46s8.12,19.57,20.35,19.57Zm8.89-8.57c-5.45,0-9.01-4.89-9.01-12.23s3.56-12.13,9.01-12.13,9.12,5.01,9.12,12.13-3.78,12.23-9.12,12.23Z"/><path class="cls-1" d="m302.28,50.24c6.22,0,11.34-4.67,11.34-10.68s-5.12-10.68-11.34-10.68-11.35,4.67-11.35,10.68,5.12,10.68,11.35,10.68Zm-13.57,65.95h28.7v-1.23c-2.23-2.55-4.01-12.67-4.01-29.69v-32.03h-1.11c-5.67,3.56-15.79,5.45-23.69,5.67v1.11c1.78,1.56,3.67,5.34,4,15.35v9.9c0,17.02-1.78,27.14-3.89,29.69v1.23Z"/><path class="cls-1" d="m337.31,117.74c8.68,0,12.9-6.56,14.02-15.9l-1.11-.22c-.44,2-1.78,3.56-3.67,3.56-3,0-4.67-3-4.67-8V32.67h-1.11c-5.78,3.67-15.68,5.56-23.58,5.67v1.11c2,1.78,4.01,6.01,4.01,18.68v42.82c0,10.12,6.11,16.79,16.12,16.79Z"/><path class="cls-1" d="m369.56,117.74c9.34,0,16.68-5.67,19.02-13.68h1.33c1.23,7.79,6.67,13.68,14.57,13.68s12.34-6.9,13.23-16.02h-1.11c-.56,2-1.56,3.45-3.45,3.45-2.89,0-4.45-3-5.34-7.89l-3.67-21.02c-2.66-14.57-11.68-22.8-27.91-22.8-11.79,0-21.02,5.56-21.02,13.46,0,5.67,4.78,10.01,10.56,10.01s9.46-4.56,9.46-9.12c0-1.23-.34-2.56-.89-3.45l-1.22.11c.33,2.22-1.67,3.67-4.45,3.67s-5.23-2.11-5.23-5.45c0-3.89,2.89-6.56,7.67-6.56,5.89,0,9.9,4.11,11.12,11.23l3.11,17.91h-1.33c-2.45-3.56-8.57-6.56-14.46-6.56-12.24,0-20.35,7.56-20.35,19.46s8.12,19.57,20.35,19.57Zm8.89-8.57c-5.45,0-9.01-4.89-9.01-12.23s3.56-12.13,9.01-12.13,9.12,5.01,9.12,12.13-3.78,12.23-9.12,12.23Z"/><path class="cls-1" d="m436.49,25.14c-1.2,44.15-2.17,45.13-46.02,46.34,43.86,1.21,44.83,2.18,46.02,46.34,1.2-44.15,2.17-45.13,46.02-46.34-43.86-1.21-44.83-2.18-46.02-46.34"/><path class="cls-1" d="m468.05,58.02c.52-19.34.95-19.77,20.16-20.3-19.21-.53-19.64-.96-20.16-20.3-.52,19.34-.95,19.77-20.16,20.3,19.21.53,19.64.96,20.16,20.3"/></g></svg>